<svg xmlns="http://www.w3.org/2000/svg" viewBox="0 0 262 53"><g fill="#FFF" fill-rule="nonzero"><path d="M109.7 18.2h.1c1-2.1 3.6-4.2 7.5-4.2 6.9 0 9.3 4.8 9.3 10.1v16.1h-6.4V27.3c0-2.8-.2-7.5-4.7-7.5-4.2 0-5.9 3.1-5.9 6.5v13.9h-6.4V0h6.4v18.2h.1zM146.6 36.7h-.2c-1.8 2.9-4.8 4.1-8.2 4.1-4.7 0-9.3-2.6-9.3-7.7 0-8.3 9.7-8.9 16.1-8.9h1.6v-.7c0-3.1-2.4-4.8-5.9-4.8-2.7 0-5.1 1.1-6.8 2.7l-3.3-3.4c2.8-2.9 6.8-4.1 10.8-4.1 10.9 0 10.9 7.9 10.9 11.5v14.7h-5.7v-3.4zm-.3-7.9H145c-3.5 0-9.6.3-9.6 3.9 0 2.3 2.4 3.3 4.5 3.3 4.4 0 6.4-2.3 6.4-5.9v-1.3zM155.1 0h6.4v40.2h-6.4zM164.6 0h6.4v40.2h-6.4zM173.9 14.7h6.4v25.5h-6.4zM173.9 5.5h6.4v6.4h-6.4zM203.5 36.4h-.1c-1.9 3.1-5.2 4.5-8.8 4.5-7.9 0-12.6-5.8-12.6-13.4 0-7.6 5.1-13.4 12.3-13.4 4.8 0 7.3 2.2 8.7 3.9h.2V0h6.4v40.2h-6.1v-3.8zm-7.6-1.3c4.7 0 7.5-3.7 7.5-7.7s-2.8-7.7-7.5-7.7-7.5 3.7-7.5 7.7 2.9 7.7 7.5 7.7zM229.3 36.7h-.2c-1.8 2.9-4.8 4.1-8.2 4.1-4.7 0-9.3-2.6-9.3-7.7 0-8.3 9.7-8.9 16.1-8.9h1.6v-.7c0-3.1-2.4-4.8-5.8-4.8-2.7 0-5.1 1.1-6.8 2.7l-3.3-3.4c2.8-2.9 6.8-4.1 10.8-4.1 10.8.1 10.8 8 10.8 11.6v14.7h-5.7v-3.5zm-.4-7.9h-1.3c-3.5 0-9.6.3-9.6 3.9 0 2.3 2.4 3.3 4.5 3.3 4.4 0 6.4-2.3 6.4-5.9v-1.3z"/><path d="M234 14.7h7l7.1 17.7h.1l6.4-17.7h6.7l-12.1 31c-1.9 4.8-4.1 7.3-9.7 7.3-1.6 0-3.3-.2-4.9-.6l.8-5.7c1 .4 2.1.6 3.2.6 3.1 0 4-1.1 5.1-3.8l1.2-3L234 14.7zM.3 20.4c0-1.9-.2-3.7-.3-5.6h3.8v3.8H4c1.7-2.9 5.2-4.5 8.2-4.5 2.8 0 6.4.9 8.1 5.3 1.5-3.3 4.9-5.3 8.4-5.3 6.5 0 9.5 3.6 9.5 9.9v16.1h-3.6V25.3c0-5.2-1.5-8-6.4-8-5.3 0-7.2 4.6-7.2 9.3v13.5h-3.6V25.3c0-5.2-1.5-8-6.4-8-.9 0-7.2.5-7.2 9.8v13H.3V20.4zM58.8 24.8v-.7c0-4.4-2.1-6.6-6.5-6.6-3 0-5.6 1-7.8 3L42.4 18c2.3-2.4 6-3.7 10.7-3.7 5 0 9.3 2.8 9.3 9v11.3c0 2 .2 4.3.4 5.7h-3.5c-.2-1.2-.3-2.8-.3-4.1h-.1c-2.1 3.4-4.9 4.8-9 4.8-4.5 0-8.7-2.5-8.7-7.4 0-8.2 9.7-8.8 15.8-8.8h1.8zm-1.9 2.9c-3.6 0-11.8.3-11.8 5.4 0 3.4 3.1 4.7 6 4.7 5.2 0 7.7-3.7 7.7-8.2v-1.8h-1.9v-.1zM79.6 18.2h-7.3v15c0 3.8 1.5 4.6 3.7 4.6 1.2 0 2.6-.4 3.7-1l.2 3.3c-1.3.6-3 .9-4.8.9-2.7 0-6.3-1.2-6.3-6.8v-16h-5.4V15h5.4V5.8h3.6V15h7.3v3.2h-.1zM98 18.2h-7.3v15c0 3.8 1.5 4.6 3.7 4.6 1.2 0 2.6-.4 3.7-1l.2 3.3c-1.3.6-3 .9-4.8.9-2.7 0-6.3-1.2-6.3-6.8v-16h-5.4V15h5.4V5.8h3.6V15H98v3.2z"/></g></svg>
